<?xml version="1.0" encoding="utf-8"?>
<!-- Generator: Adobe Illustrator 22.0.0, SVG Export Plug-In . SVG Version: 6.00 Build 0)  -->
<svg version="1.1" id="Calque_1" xmlns="http://www.w3.org/2000/svg" xmlns:xlink="http://www.w3.org/1999/xlink" x="0px" y="0px"
	 viewBox="0 0 24 24" style="enable-background:new 0 0 24 24;" xml:space="preserve">
<style type="text/css">
	.st0{fill:#E0245E;}
</style>
<g>
	<path class="st0" d="M12,21.6L12,21.6C9.4,21.6,2,14.9,2,8.5c0-3.1,2.5-5.8,5.4-5.8c2.3,0,3.8,1.6,4.6,2.7c0.8-1.1,2.4-2.7,4.6-2.7
		c2.9,0,5.4,2.7,5.4,5.8C22,14.9,14.6,21.6,12,21.6L12,21.6L12,21.6z M7.4,4.2c-2.1,0-3.9,2-3.9,4.3c0,5.7,7,11.6,8.6,11.7
		c1.5-0.1,8.6-5.9,8.6-11.7c0-2.3-1.8-4.3-3.9-4.3c-2.5,0-3.9,2.9-4,3c-0.2,0.6-1.2,0.6-1.4,0C11.3,7.2,9.9,4.2,7.4,4.2L7.4,4.2z"/>
</g>
</svg>
